<svg width="161" height="160" fill="none" xmlns="http://www.w3.org/2000/svg"><path d="M107.64 63.2h-1.52v-4.64a9.16 9.16 0 0 0-9.08-9.19H62.22c-5 0-9.08 4.14-9.08 9.19v42.86a9.16 9.16 0 0 0 9.09 9.19h34.81c5 0 9.08-4.13 9.08-9.19v-3.41h1.52c.41 0 .75-.34.75-.76V83.47a.76.76 0 0 0-.75-.77h-1.52v-8.79h1.52c.83 0 1.51-.69 1.51-1.53v-7.65c0-.84-.68-1.53-1.51-1.53Zm-20.42-3.11c2.93 0 5.3 2.4 5.3 5.36a5.33 5.33 0 0 1-5.3 5.35c-2.92 0-5.3-2.4-5.3-5.35a5.33 5.33 0 0 1 5.3-5.36Zm-15.13 0c2.92 0 5.3 2.4 5.3 5.36a5.33 5.33 0 0 1-5.3 5.35c-2.93 0-5.3-2.4-5.3-5.35a5.33 5.33 0 0 1 5.3-5.36Zm-13.65 20.3a5.33 5.33 0 0 1 5.3-5.35c2.92 0 5.3 2.4 5.3 5.36a5.33 5.33 0 0 1-5.3 5.35c-2.93 0-5.3-2.4-5.3-5.35Zm13.65 19.5c-2.93 0-5.3-2.4-5.3-5.35a5.33 5.33 0 0 1 5.3-5.36c2.92 0 5.3 2.4 5.3 5.36a5.33 5.33 0 0 1-5.3 5.35ZM73.58 80a6.09 6.09 0 0 1 6.05-6.12 6.09 6.09 0 0 1 6.06 6.12 6.09 6.09 0 0 1-6.06 6.13 6.1 6.1 0 0 1-6.05-6.13Zm13.64 19.9c-2.92 0-5.3-2.4-5.3-5.35a5.33 5.33 0 0 1 5.3-5.36c2.93 0 5.3 2.4 5.3 5.36a5.33 5.33 0 0 1-5.3 5.35Zm8.3-14.13c-2.92 0-5.3-2.4-5.3-5.36a5.33 5.33 0 0 1 5.3-5.36c2.93 0 5.3 2.4 5.3 5.36a5.33 5.33 0 0 1-5.3 5.36ZM62.79 46.31h33.69c.84 0 1.43-.68 1.3-1.51l-1.61-10.77A3.68 3.68 0 0 0 92.64 31H66.62a3.68 3.68 0 0 0-3.52 3.03L61.48 44.8c-.12.83.47 1.51 1.3 1.51ZM96.48 113.67h-33.7c-.83 0-1.42.68-1.3 1.52l1.62 10.76a3.68 3.68 0 0 0 3.52 3.03h26.03a3.68 3.68 0 0 0 3.51-3.02l1.62-10.77a1.28 1.28 0 0 0-1.3-1.52Z" fill="#363636"/></svg>