<svg width="161" height="160" fill="none" xmlns="http://www.w3.org/2000/svg"><path d="M26.2 49.26c-5.55.49-10.22 1.6-11.48 2.67-.73.62-.73.62-.24 1.16.65.72 3.72 1.64 7.25 2.23 4 .67 12.51.7 13.73.05 1.2-.66 1.62-1.4 1.62-2.98 0-1.62-.62-2.41-2.22-2.85-1.44-.39-5.78-.54-8.67-.28ZM39.92 49.49c-.13.28-.26 2.1-.26 4.11 0 4.06.15 3.78-2.2 3.93l-1.02.08-.26 5.09-1.19.28c-2.58.67-4 2.6-3.8 5.3.14 1.92 1.04 3.34 2.59 4.08 1.1.52 1.47.54 11.24.54 5.55 0 10.14.08 10.2.18.04.13-1.12 9.4-2.59 20.64-1.44 11.23-2.68 21-2.7 21.67-.06 1.61.82 2.62 2.34 2.62 1.24 0 2.01-.64 2.32-1.9.13-.52 1.5-10.34 3.02-21.83a727.78 727.78 0 0 1 2.94-20.86c.1 0 1.08 1.4 2.2 3.13 2.93 4.63 2.4 4.32 7.63 4.32h4.36v5.63l-5.13.08c-4.72.07-5.21.12-5.89.61-1.57 1.16-1.62 1.42-1.62 10.98 0 9.53.03 9.79 1.52 11.05l.85.7h31.37l.85-.7c1.5-1.26 1.52-1.52 1.52-11.05 0-9.56-.05-9.82-1.62-10.98-.68-.49-1.17-.54-5.89-.61l-5.13-.08v-5.63h4.36c5.24 0 4.7.3 7.64-4.32a25.53 25.53 0 0 1 2.19-3.13c.07 0 1.42 9.4 2.94 20.86 1.52 11.5 2.89 21.31 3.02 21.83.3 1.26 1.08 1.9 2.32 1.9 1.52 0 2.4-1 2.34-2.62-.02-.67-1.26-10.44-2.7-21.67a899.97 899.97 0 0 1-2.58-20.64c.05-.1 4.64-.18 10.19-.18 9.77 0 10.13-.02 11.24-.54 1.55-.74 2.45-2.16 2.58-4.08a4.74 4.74 0 0 0-3.8-5.3l-1.18-.28-.25-5.09-1.04-.08c-2.34-.15-2.19.13-2.19-3.93 0-2-.13-3.83-.26-4.11-.2-.36-.54-.49-1.36-.49-.62 0-1.24.13-1.42.3-.21.21-.31 1.47-.31 3.94 0 2.47-.1 3.73-.31 3.93-.18.18-.9.31-1.65.31-1.63 0-1.65.05-1.65 3.11v2.29H46.62v-2.29c0-3.06-.02-3.1-1.65-3.1-.75 0-1.47-.14-1.65-.32-.2-.2-.3-1.46-.3-3.93s-.11-3.73-.32-3.93c-.18-.18-.8-.31-1.42-.31-.82 0-1.16.13-1.36.49ZM82.76 89.6c2.89.9 5.4 3.4 6.17 6.17.43 1.54.3 4.21-.29 5.78-.7 1.88-2.68 4-4.56 4.94-1.3.64-1.76.71-3.93.71-2.16 0-2.63-.07-3.92-.71a10.22 10.22 0 0 1-4.56-4.94c-.6-1.57-.72-4.24-.29-5.78a9.58 9.58 0 0 1 6.07-6.17 7.56 7.56 0 0 1 5.3 0Z" fill="#363636"/><path d="M77.94 93.44c-2.04.92-3.51 3.65-3.07 5.73a5.42 5.42 0 0 0 8 3.7 5.3 5.3 0 0 0 2.44-5.78 5.38 5.38 0 0 0-5.16-4.14c-.64 0-1.62.23-2.21.49ZM50.23 49.15c-3.92.67-4.5 1.14-4.5 3.45 0 1.82.45 2.41 2.26 2.95 1.55.47 7.17.52 10.5.13 6.86-.82 11.32-2.54 9.7-3.75-1.27-.9-4.9-1.88-9.06-2.39-2.47-.3-8-.54-8.9-.39ZM103.63 49.26c-6.32.59-11.87 2.08-11.87 3.18 0 1.73 7.84 3.47 15.63 3.5 5.8 0 7.2-.64 7.2-3.34 0-1.83-.62-2.62-2.38-3.09-1.64-.4-5.67-.51-8.58-.25ZM126.92 49.28c-1.78.23-3.02.77-3.43 1.5-.39.76-.31 2.9.15 3.57.93 1.3 1.65 1.46 7.07 1.46 3.66 0 5.8-.13 7.87-.49 3.53-.59 6.6-1.51 7.24-2.23.5-.54.5-.54-.23-1.16-1.34-1.13-5.96-2.18-11.91-2.67-3.49-.29-4.5-.29-6.76.02Z" fill="#363636"/></svg>