<svg width="161" height="160" viewBox="0 0 161 160" fill="none" xmlns="http://www.w3.org/2000/svg">
<path d="M119.963 47.011H40.4722C38.7112 47.011 37.2842 48.438 37.2842 50.199V96.612C37.2842 98.375 38.7112 99.801 40.4722 99.801H119.964C121.726 99.801 123.153 98.374 123.153 96.612V50.199C123.153 48.438 121.725 47.011 119.963 47.011ZM45.5342 80.236H45.3082C43.5462 80.236 42.1192 78.807 42.1192 77.047V69.764C42.1192 68.003 43.5462 66.576 45.3082 66.576H45.5342V80.236ZM106.765 95.408H50.4832V51.402H106.765V95.408ZM115.542 77.552C113.253 77.552 111.396 75.697 111.396 73.405C111.396 71.113 113.252 69.258 115.542 69.258C117.833 69.258 119.69 71.113 119.69 73.405C119.69 75.697 117.833 77.552 115.542 77.552Z" fill="#363636"/>
<path d="M91.7962 43H68.6392V45.758H91.7962V43Z" fill="#363636"/>
<path d="M83.7502 107.861V104.888H91.7962V102.13H68.6402V104.888H76.6852V140.134C74.5462 141.072 73.0502 143.206 73.0502 145.693V160H87.3852V145.693C87.3852 143.207 85.8902 141.072 83.7492 140.136V112.146H88.5452L93.5962 113.359V106.648L88.5452 107.861H83.7502Z" fill="#363636"/>
</svg>
