<svg width="161" height="160" viewBox="0 0 161 160" fill="none" xmlns="http://www.w3.org/2000/svg">
<g opacity="0.3">
<path d="M102.491 39.49C102.491 38.754 101.913 38 101.18 38H58.1951C57.4621 38 56.8141 38.754 56.8141 39.49V43.012H102.49L102.491 39.49Z" fill="#363636"/>
<path d="M103.344 119.809H93.7471V109.426H86.7891V111.933H67.9161C67.3791 110.679 66.1591 109.785 64.7351 109.785H52.7011C50.7841 109.784 49.1421 111.387 49.1421 113.311V116.329C49.1421 118.253 50.7841 119.809 52.7011 119.809H64.7361C66.2471 119.809 67.5281 118.913 68.0051 117.483H86.7901V119.809H77.2721C76.7391 119.809 76.2621 120.246 76.2621 120.781V123.953C76.2621 124.488 76.7401 125.001 77.2721 125.001H103.344C103.877 125.001 104.274 124.488 104.274 123.953V120.78C104.274 120.245 103.877 119.809 103.344 119.809Z" fill="#363636"/>
<path d="M109.808 50.39C108.947 47.453 106.241 45.34 103.037 45.34H56.2901C52.3921 45.34 49.1421 48.449 49.1421 52.361V99.261C49.1421 103.173 52.3921 106.382 56.2901 106.382H103.037C106.935 106.382 110.163 103.173 110.163 99.261V88.915C116.229 84.711 120.164 77.704 120.164 69.751C120.163 61.672 116.032 54.57 109.808 50.39ZM61.3801 100.151C58.1211 100.151 55.4791 97.501 55.4791 94.23C55.4791 90.96 58.1211 88.308 61.3801 88.308C64.6391 88.308 67.2821 90.96 67.2821 94.23C67.2821 97.501 64.6391 100.151 61.3801 100.151ZM67.3411 67.546C67.3411 68.332 66.7061 68.968 65.9231 68.968H56.9831C56.2001 68.968 55.5651 68.331 55.5651 67.546V53.386C55.5651 52.6 56.2001 51.963 56.9831 51.963H65.9221C66.7051 51.963 67.3401 52.6 67.3401 53.386L67.3411 67.546ZM96.9041 89.858C85.8281 89.858 76.8471 80.848 76.8471 69.735C76.8471 58.622 85.8271 49.611 96.9041 49.611C107.981 49.611 116.962 58.621 116.962 69.735C116.962 80.849 107.981 89.858 96.9041 89.858Z" fill="#363636"/>
<path d="M96.9041 81.964C103.635 81.964 109.092 76.4889 109.092 69.735C109.092 62.9811 103.635 57.506 96.9041 57.506C90.1728 57.506 84.7161 62.9811 84.7161 69.735C84.7161 76.4889 90.1728 81.964 96.9041 81.964Z" fill="#363636"/>
<path d="M80.7041 71.171C81.4966 71.171 82.1391 70.5285 82.1391 69.736C82.1391 68.9435 81.4966 68.301 80.7041 68.301C79.9116 68.301 79.2691 68.9435 79.2691 69.736C79.2691 70.5285 79.9116 71.171 80.7041 71.171Z" fill="#363636"/>
<path d="M113.105 71.171C113.898 71.171 114.54 70.5285 114.54 69.736C114.54 68.9435 113.898 68.301 113.105 68.301C112.313 68.301 111.67 68.9435 111.67 69.736C111.67 70.5285 112.313 71.171 113.105 71.171Z" fill="#363636"/>
<path d="M88.2511 57.429C89.0436 57.429 89.6861 56.7865 89.6861 55.994C89.6861 55.2015 89.0436 54.559 88.2511 54.559C87.4586 54.559 86.8161 55.2015 86.8161 55.994C86.8161 56.7865 87.4586 57.429 88.2511 57.429Z" fill="#363636"/>
<path d="M105.557 84.912C106.347 84.912 106.987 84.2691 106.987 83.476C106.987 82.6829 106.347 82.04 105.557 82.04C104.767 82.04 104.127 82.6829 104.127 83.476C104.127 84.2691 104.767 84.912 105.557 84.912Z" fill="#363636"/>
<path d="M104.839 57C105.632 57 106.274 56.3575 106.274 55.565C106.274 54.7725 105.632 54.13 104.839 54.13C104.047 54.13 103.404 54.7725 103.404 55.565C103.404 56.3575 104.047 57 104.839 57Z" fill="#363636"/>
<path d="M88.9701 85.341C89.7626 85.341 90.4051 84.6985 90.4051 83.906C90.4051 83.1135 89.7626 82.471 88.9701 82.471C88.1776 82.471 87.5351 83.1135 87.5351 83.906C87.5351 84.6985 88.1776 85.341 88.9701 85.341Z" fill="#363636"/>
</g>
</svg>
