<svg width="161" height="160" viewBox="0 0 161 160" fill="none" xmlns="http://www.w3.org/2000/svg">
<g opacity="0.3">
<path d="M125.109 54.0741C125.861 55.5151 126.318 57.1541 126.318 58.8921V79.9941C126.318 84.6101 123.226 88.5211 119.072 89.8941C117.747 93.8811 115.294 97.7481 111.021 100.326C102.345 105.557 79.8971 105.163 79.8231 105.163C79.7451 105.163 57.3101 105.558 48.6341 100.326C44.4181 97.7811 41.9261 93.9791 40.5921 90.0471C36.1741 88.8381 32.8361 84.7961 32.8361 79.9941V58.8931C32.8361 57.2051 33.2631 55.6111 33.9751 54.2001C30.3121 55.1091 26.1421 56.9181 26.1421 60.4341C26.1421 66.6771 26.1421 86.1211 26.1421 90.4171C26.1421 100.668 37.9811 114.85 79.7991 114.85C121.619 114.85 133.456 100.668 133.456 90.4171C133.456 86.1211 133.456 66.6771 133.456 60.4341C133.455 56.7501 128.88 54.9401 125.109 54.0741Z" fill="#363636"/>
<path d="M46.7031 88.4591H112.226C117.79 88.4591 122.3 83.9461 122.3 78.3821V59.9351C122.3 54.3721 117.79 49.8601 112.226 49.8601H46.7031C41.1391 49.8601 36.6281 54.3711 36.6281 59.9351V78.3821C36.6281 83.9461 41.1391 88.4591 46.7031 88.4591ZM109.837 59.4681C110.704 59.4681 111.406 60.1711 111.406 61.0381C111.406 61.9041 110.704 62.6071 109.837 62.6071C108.97 62.6071 108.269 61.9041 108.269 61.0381C108.269 60.1701 108.97 59.4681 109.837 59.4681ZM109.837 63.5071C110.704 63.5071 111.406 64.2101 111.406 65.0751C111.406 65.9421 110.704 66.6441 109.837 66.6441C108.97 66.6441 108.269 65.9421 108.269 65.0751C108.269 64.2101 108.97 63.5071 109.837 63.5071ZM109.837 67.5461C110.704 67.5461 111.406 68.2481 111.406 69.1151C111.406 69.9811 110.704 70.6841 109.837 70.6841C108.97 70.6841 108.269 69.9811 108.269 69.1151C108.269 68.2481 108.97 67.5461 109.837 67.5461ZM109.837 71.3731C110.704 71.3731 111.406 72.0771 111.406 72.9421C111.406 73.8091 110.704 74.5101 109.837 74.5101C108.97 74.5101 108.269 73.8091 108.269 72.9421C108.269 72.0761 108.97 71.3731 109.837 71.3731ZM109.837 75.4121C110.704 75.4121 111.406 76.1141 111.406 76.9811C111.406 77.8461 110.704 78.5491 109.837 78.5491C108.97 78.5491 108.269 77.8451 108.269 76.9811C108.269 76.1141 108.97 75.4121 109.837 75.4121ZM105.798 59.4681C106.665 59.4681 107.366 60.1711 107.366 61.0381C107.366 61.9041 106.665 62.6071 105.798 62.6071C104.933 62.6071 104.23 61.9041 104.23 61.0381C104.23 60.1701 104.933 59.4681 105.798 59.4681ZM105.798 75.4121C106.665 75.4121 107.366 76.1141 107.366 76.9811C107.366 77.8461 106.665 78.5491 105.798 78.5491C104.933 78.5491 104.23 77.8451 104.23 76.9811C104.23 76.1141 104.933 75.4121 105.798 75.4121ZM101.761 59.4681C102.626 59.4681 103.329 60.1711 103.329 61.0381C103.329 61.9041 102.626 62.6071 101.761 62.6071C100.894 62.6071 100.192 61.9041 100.192 61.0381C100.192 60.1701 100.894 59.4681 101.761 59.4681ZM101.761 63.5071C102.626 63.5071 103.329 64.2101 103.329 65.0751C103.329 65.9421 102.626 66.6441 101.761 66.6441C100.894 66.6441 100.192 65.9421 100.192 65.0751C100.192 64.2101 100.894 63.5071 101.761 63.5071ZM101.761 67.5461C102.626 67.5461 103.329 68.2481 103.329 69.1151C103.329 69.9811 102.626 70.6841 101.761 70.6841C100.894 70.6841 100.192 69.9811 100.192 69.1151C100.192 68.2481 100.894 67.5461 101.761 67.5461ZM101.761 71.3731C102.626 71.3731 103.329 72.0771 103.329 72.9421C103.329 73.8091 102.626 74.5101 101.761 74.5101C100.894 74.5101 100.192 73.8091 100.192 72.9421C100.192 72.0761 100.894 71.3731 101.761 71.3731ZM101.761 75.4121C102.626 75.4121 103.329 76.1141 103.329 76.9811C103.329 77.8461 102.626 78.5491 101.761 78.5491C100.894 78.5491 100.192 77.8451 100.192 76.9811C100.192 76.1141 100.894 75.4121 101.761 75.4121ZM94.1071 59.4681C94.9741 59.4681 95.6751 60.1711 95.6751 61.0381C95.6751 61.9041 94.9741 62.6071 94.1071 62.6071C93.2401 62.6071 92.5391 61.9041 92.5391 61.0381C92.5381 60.1701 93.2421 59.4681 94.1071 59.4681ZM94.1071 67.5461C94.9741 67.5461 95.6751 68.2481 95.6751 69.1151C95.6751 69.9811 94.9741 70.6841 94.1071 70.6841C93.2401 70.6841 92.5391 69.9811 92.5391 69.1151C92.5381 68.2481 93.2421 67.5461 94.1071 67.5461ZM94.1071 71.4271C94.9741 71.4271 95.6751 72.1281 95.6751 72.9951C95.6751 73.8601 94.9741 74.5641 94.1071 74.5641C93.2401 74.5641 92.5391 73.8601 92.5391 72.9951C92.5381 72.1281 93.2421 71.4271 94.1071 71.4271ZM94.1071 75.4121C94.9741 75.4121 95.6751 76.1141 95.6751 76.9811C95.6751 77.8461 94.9741 78.5491 94.1071 78.5491C93.2401 78.5491 92.5391 77.8451 92.5391 76.9811C92.5381 76.1141 93.2421 75.4121 94.1071 75.4121ZM90.0681 59.4681C90.9351 59.4681 91.6381 60.1711 91.6381 61.0381C91.6381 61.9041 90.9351 62.6071 90.0681 62.6071C89.2031 62.6071 88.4991 61.9041 88.4991 61.0381C88.4981 60.1701 89.2031 59.4681 90.0681 59.4681ZM90.0681 67.5461C90.9351 67.5461 91.6381 68.2481 91.6381 69.1151C91.6381 69.9811 90.9351 70.6841 90.0681 70.6841C89.2031 70.6841 88.4991 69.9811 88.4991 69.1151C88.4981 68.2481 89.2031 67.5461 90.0681 67.5461ZM90.0681 75.4121C90.9351 75.4121 91.6381 76.1141 91.6381 76.9811C91.6381 77.8461 90.9351 78.5491 90.0681 78.5491C89.2031 78.5491 88.4991 77.8451 88.4991 76.9811C88.4981 76.1141 89.2031 75.4121 90.0681 75.4121ZM86.0301 59.4681C86.8951 59.4681 87.5991 60.1711 87.5991 61.0381C87.5991 61.9041 86.8951 62.6071 86.0301 62.6071C85.1631 62.6071 84.4621 61.9041 84.4621 61.0381C84.4611 60.1701 85.1631 59.4681 86.0301 59.4681ZM86.0301 63.5071C86.8951 63.5071 87.5991 64.2101 87.5991 65.0751C87.5991 65.9421 86.8951 66.6441 86.0301 66.6441C85.1631 66.6441 84.4621 65.9421 84.4621 65.0751C84.4611 64.2101 85.1631 63.5071 86.0301 63.5071ZM86.0301 67.5461C86.8951 67.5461 87.5991 68.2481 87.5991 69.1151C87.5991 69.9811 86.8951 70.6841 86.0301 70.6841C85.1631 70.6841 84.4621 69.9811 84.4621 69.1151C84.4611 68.2481 85.1631 67.5461 86.0301 67.5461ZM86.0301 75.4121C86.8951 75.4121 87.5991 76.1141 87.5991 76.9811C87.5991 77.8461 86.8951 78.5491 86.0301 78.5491C85.1631 78.5491 84.4621 77.8451 84.4621 76.9811C84.4611 76.1141 85.1631 75.4121 86.0301 75.4121ZM77.7401 59.4681C78.6071 59.4681 79.3091 60.1711 79.3091 61.0381C79.3091 61.9041 78.6071 62.6071 77.7401 62.6071C76.8731 62.6071 76.1721 61.9041 76.1721 61.0381C76.1711 60.1701 76.8731 59.4681 77.7401 59.4681ZM77.7401 63.5071C78.6071 63.5071 79.3091 64.2101 79.3091 65.0751C79.3091 65.9421 78.6071 66.6441 77.7401 66.6441C76.8731 66.6441 76.1721 65.9421 76.1721 65.0751C76.1711 64.2101 76.8731 63.5071 77.7401 63.5071ZM77.7401 67.5461C78.6071 67.5461 79.3091 68.2481 79.3091 69.1151C79.3091 69.9811 78.6071 70.6841 77.7401 70.6841C76.8731 70.6841 76.1721 69.9811 76.1721 69.1151C76.1711 68.2481 76.8731 67.5461 77.7401 67.5461ZM77.7401 71.4271C78.6071 71.4271 79.3091 72.1281 79.3091 72.9951C79.3091 73.8601 78.6071 74.5641 77.7401 74.5641C76.8731 74.5641 76.1721 73.8601 76.1721 72.9951C76.1711 72.1281 76.8731 71.4271 77.7401 71.4271ZM77.7401 75.4121C78.6071 75.4121 79.3091 76.1141 79.3091 76.9811C79.3091 77.8461 78.6071 78.5491 77.7401 78.5491C76.8731 78.5491 76.1721 77.8451 76.1721 76.9811C76.1711 76.1141 76.8731 75.4121 77.7401 75.4121ZM73.7011 63.5071C74.5681 63.5071 75.2691 64.2101 75.2691 65.0751C75.2691 65.9421 74.5681 66.6441 73.7011 66.6441C72.8341 66.6441 72.1321 65.9421 72.1321 65.0751C72.1321 64.2101 72.8331 63.5071 73.7011 63.5071ZM65.1991 63.2951C66.0641 63.2951 66.7681 63.9981 66.7681 64.8631C66.7681 65.7301 66.0641 66.4321 65.1991 66.4321C64.3321 66.4321 63.6281 65.7291 63.6281 64.8631C63.6281 63.9981 64.3311 63.2951 65.1991 63.2951ZM65.1991 67.3331C66.0641 67.3331 66.7681 68.0361 66.7681 68.9031C66.7681 69.7691 66.0641 70.4731 65.1991 70.4731C64.3321 70.4731 63.6281 69.7691 63.6281 68.9031C63.6281 68.0361 64.3311 67.3331 65.1991 67.3331ZM61.1601 59.2551C62.0251 59.2551 62.7281 59.9581 62.7281 60.8251C62.7281 61.6911 62.0241 62.3931 61.1601 62.3931C60.2931 62.3931 59.5911 61.6901 59.5911 60.8251C59.5911 59.9581 60.2921 59.2551 61.1601 59.2551ZM61.1601 63.2951C62.0251 63.2951 62.7281 63.9981 62.7281 64.8631C62.7281 65.7301 62.0241 66.4321 61.1601 66.4321C60.2931 66.4321 59.5911 65.7291 59.5911 64.8631C59.5911 63.9981 60.2921 63.2951 61.1601 63.2951ZM61.1601 67.3331C62.0251 67.3331 62.7281 68.0361 62.7281 68.9031C62.7281 69.7691 62.0241 70.4731 61.1601 70.4731C60.2931 70.4731 59.5911 69.7691 59.5911 68.9031C59.5911 68.0361 60.2921 67.3331 61.1601 67.3331ZM61.1601 71.3731C62.0251 71.3731 62.7281 72.0771 62.7281 72.9421C62.7281 73.8091 62.0241 74.5101 61.1601 74.5101C60.2931 74.5101 59.5911 73.8091 59.5911 72.9421C59.5911 72.0761 60.2921 71.3731 61.1601 71.3731ZM56.9061 63.2951C57.7731 63.2951 58.4751 63.9981 58.4751 64.8631C58.4751 65.7301 57.7731 66.4321 56.9061 66.4321C56.0391 66.4321 55.3381 65.7291 55.3381 64.8631C55.3381 63.9981 56.0391 63.2951 56.9061 63.2951ZM56.9061 67.3331C57.7731 67.3331 58.4751 68.0361 58.4751 68.9031C58.4751 69.7691 57.7731 70.4731 56.9061 70.4731C56.0391 70.4731 55.3381 69.7691 55.3381 68.9031C55.3381 68.0361 56.0391 67.3331 56.9061 67.3331ZM56.9061 71.3731C57.7731 71.3731 58.4751 72.0771 58.4751 72.9421C58.4751 73.8091 57.7731 74.5101 56.9061 74.5101C56.0391 74.5101 55.3381 73.8091 55.3381 72.9421C55.3381 72.0761 56.0391 71.3731 56.9061 71.3731ZM56.9061 75.4121C57.7731 75.4121 58.4751 76.1141 58.4751 76.9811C58.4751 77.8461 57.7731 78.5491 56.9061 78.5491C56.0391 78.5491 55.3381 77.8451 55.3381 76.9811C55.3381 76.1141 56.0391 75.4121 56.9061 75.4121ZM52.4421 59.2551C53.3091 59.2551 54.0131 59.9581 54.0131 60.8251C54.0131 61.6911 53.3091 62.3931 52.4421 62.3931C51.5771 62.3931 50.8731 61.6901 50.8731 60.8251C50.8731 59.9581 51.5771 59.2551 52.4421 59.2551ZM52.4421 63.2951C53.3091 63.2951 54.0131 63.9981 54.0131 64.8631C54.0131 65.7301 53.3091 66.4321 52.4421 66.4321C51.5771 66.4321 50.8731 65.7291 50.8731 64.8631C50.8731 63.9981 51.5771 63.2951 52.4421 63.2951ZM52.4421 67.3331C53.3091 67.3331 54.0131 68.0361 54.0131 68.9031C54.0131 69.7691 53.3091 70.4731 52.4421 70.4731C51.5771 70.4731 50.8731 69.7691 50.8731 68.9031C50.8731 68.0361 51.5771 67.3331 52.4421 67.3331ZM52.4421 71.3731C53.3091 71.3731 54.0131 72.0771 54.0131 72.9421C54.0131 73.8091 53.3091 74.5101 52.4421 74.5101C51.5771 74.5101 50.8731 73.8091 50.8731 72.9421C50.8731 72.0761 51.5771 71.3731 52.4421 71.3731ZM48.4051 63.2951C49.2701 63.2951 49.9741 63.9981 49.9741 64.8631C49.9741 65.7301 49.2701 66.4321 48.4051 66.4321C47.5381 66.4321 46.8361 65.7291 46.8361 64.8631C46.8361 63.9981 47.5381 63.2951 48.4051 63.2951ZM48.4051 67.3331C49.2701 67.3331 49.9741 68.0361 49.9741 68.9031C49.9741 69.7691 49.2701 70.4731 48.4051 70.4731C47.5381 70.4731 46.8361 69.7691 46.8361 68.9031C46.8361 68.0361 47.5381 67.3331 48.4051 67.3331Z" fill="#363636"/>
</g>
</svg>
