<svg width="32" height="32" viewBox="0 0 32 32" fill="none" xmlns="http://www.w3.org/2000/svg">
<g clip-path="url(#clip0_8100:315)">
<path d="M16.1 18C15.7 18 15.5 17.9 15.1 17.7L8.5 14V21C8.5 21.6 8.9 22 9.4 22H22.6C23.2 22 23.5 21.6 23.5 21V14L17 17.7C16.6 17.9 16.4 18 16.1 18ZM22.6 10H9.4C8.9 10 8.5 10.5 8.5 11V11.8L16 16L23.5 11.8V11C23.5 10.5 23.1 10 22.6 10Z" fill="#B3B3B3"/>
</g>
<defs>
<clipPath id="clip0_8100:315">
<rect width="15" height="12" fill="white" transform="translate(8.5 10)"/>
</clipPath>
</defs>
</svg>
