<svg width="180" height="319" viewBox="0 0 180 319" fill="none" xmlns="http://www.w3.org/2000/svg">
<path d="M141.25 144.627C149.396 144.627 156 138.023 156 129.877C156 121.731 149.396 115.127 141.25 115.127C133.104 115.127 126.5 121.731 126.5 129.877C126.5 138.023 133.104 144.627 141.25 144.627Z" fill="white"/>
<path d="M89.1131 200.544L82.0391 218.419L59.2151 233.336C57.0471 234.568 55.5811 236.895 55.5811 239.566C55.5811 243.524 58.7891 246.733 62.7481 246.733C64.2831 246.733 65.7031 246.246 66.8691 245.423C70.6301 243.052 89.2201 231.339 92.3641 229.543C95.8641 227.543 96.4891 224.418 96.4891 224.418L101.364 208.418C101.364 208.418 101.364 208.418 95.6141 205.793C89.8641 203.168 89.1131 200.544 89.1131 200.544Z" fill="white"/>
<path d="M139.321 202.462C139.321 202.462 138.163 198.628 134.742 197.295C131.321 195.962 116.655 189.545 116.655 189.545L132.071 163.961C132.071 163.961 135.905 154.961 131.738 150.544C127.571 146.127 117.988 140.794 117.988 140.794H110.467L126.266 113.993C129.62 108.307 127.709 100.912 122.024 97.561L72.6328 68.447C66.9468 65.095 59.5538 67.005 56.2018 72.691L9.14382 152.519C5.79282 158.204 7.70182 165.599 13.3878 168.951L62.7778 198.064C68.4638 201.416 75.8588 199.505 79.2098 193.822L102.144 154.919H110.24L95.4898 181.128C95.4898 181.128 90.3558 190.342 95.1558 195.378C99.3648 199.794 107.823 202.294 107.823 202.294L125.073 208.795L130.174 240.086L130.183 240.085C130.732 243.498 133.682 246.108 137.25 246.108C141.208 246.108 144.416 242.899 144.416 238.941C144.416 238.752 144.402 238.566 144.388 238.381L144.416 238.377L139.321 202.462ZM17.9578 161.198C16.5568 160.372 16.0708 158.49 16.8968 157.09L63.9558 77.261C64.7818 75.86 66.6628 75.373 68.0628 76.199L79.5838 82.991L29.4798 167.989L17.9578 161.198ZM71.4558 189.252C70.6298 190.652 68.7488 191.139 67.3488 190.313L37.2328 172.559L87.3398 87.563L117.453 105.316C118.855 106.142 119.34 108.023 118.515 109.423L100.022 140.795H91.2388L71.3228 155.222C70.8808 155.474 70.4698 155.775 70.0928 156.113L70.0618 156.135L70.0638 156.138C68.6188 157.45 67.7058 159.336 67.7058 161.442C67.7058 165.4 70.9138 168.609 74.8728 168.609C76.4208 168.609 77.8508 168.113 79.0218 167.278L79.0238 167.281L79.0948 167.223C79.2768 167.09 79.4508 166.95 79.6188 166.8L89.2788 159.016L71.4558 189.252Z" fill="white"/>
<path d="M49.2189 66.943L2.16091 146.772C-1.19009 152.457 0.718907 159.852 6.40491 163.204L55.7949 192.317C61.4809 195.669 68.8759 193.758 72.2269 188.075L119.284 108.246C122.638 102.56 120.727 95.165 115.042 91.814L65.6499 62.7C59.9649 59.348 52.5709 61.258 49.2189 66.943ZM9.91391 151.343L56.9729 71.514C57.7989 70.113 59.6799 69.626 61.0799 70.452L72.6009 77.244L22.4959 162.242L10.9739 155.451C9.57391 154.625 9.08791 152.743 9.91391 151.343ZM111.531 103.676L64.4719 183.505C63.6459 184.905 61.7649 185.392 60.3649 184.566L30.2489 166.812L80.3549 81.816L110.468 99.569C111.871 100.394 112.355 102.275 111.531 103.676Z" fill="#F0C42E"/>
<path d="M135.25 138.833C143.396 138.833 150 132.229 150 124.083C150 115.937 143.396 109.333 135.25 109.333C127.104 109.333 120.5 115.937 120.5 124.083C120.5 132.229 127.104 138.833 135.25 138.833Z" fill="#3A3A3A"/>
<path d="M81.8748 194.75L74.8008 212.625L51.9758 227.542C49.8078 228.774 48.3418 231.101 48.3418 233.772C48.3418 237.73 51.5498 240.939 55.5088 240.939C57.0438 240.939 58.4638 240.452 59.6298 239.629C63.3908 237.258 81.9808 225.545 85.1248 223.749C88.6248 221.749 89.2498 218.624 89.2498 218.624L94.1248 202.624C94.1248 202.624 94.1248 202.624 88.3748 199.999C82.6248 197.374 81.8748 194.75 81.8748 194.75Z" fill="#3A3A3A"/>
<path d="M132.083 196.668C132.083 196.668 130.925 192.834 127.504 191.501C124.083 190.168 109.417 183.751 109.417 183.751L124.833 158.167C124.833 158.167 128.667 149.167 124.5 144.75C120.333 140.333 110.75 135 110.75 135H83.9998L64.0848 149.427C63.6428 149.68 63.2318 149.98 62.8548 150.318L62.8238 150.34L62.8258 150.343C61.3808 151.654 60.4678 153.541 60.4678 155.646C60.4678 159.604 63.6758 162.813 67.6348 162.813C69.1828 162.813 70.6128 162.317 71.7838 161.482L71.7858 161.485L71.8568 161.427C72.0388 161.294 72.2138 161.154 72.3818 161.004L87.1248 149.123H103L88.2498 175.332C88.2498 175.332 83.1158 184.546 87.9158 189.582C92.1248 193.998 100.583 196.498 100.583 196.498L117.833 202.999L122.934 234.29L122.943 234.289C123.492 237.702 126.442 240.312 130.01 240.312C133.968 240.312 137.176 237.103 137.176 233.145C137.176 232.956 137.162 232.77 137.148 232.585L137.176 232.581L132.083 196.668Z" fill="#3A3A3A"/>
</svg>
